<?xml version="1.0" standalone="no"?>
<!DOCTYPE svg PUBLIC "-//W3C//DTD SVG 20010904//EN"
 "http://www.w3.org/TR/2001/REC-SVG-20010904/DTD/svg10.dtd">
<svg version="1.0" xmlns="http://www.w3.org/2000/svg"
 width="225.000000pt" height="225.000000pt" viewBox="0 0 225.000000 225.000000"
 preserveAspectRatio="xMidYMid meet">

<g transform="translate(0.000000,225.000000) scale(0.100000,-0.100000)"
fill="#000000" stroke="none">
<path d="M0 1125 l0 -1125 1125 0 1125 0 0 1125 0 1125 -1125 0 -1125 0 0
-1125z m1143 818 c-7 -2 -13 -11 -13 -19 0 -8 -7 -14 -17 -14 -14 0 -14 2 2
20 10 11 23 20 29 19 6 0 6 -3 -1 -6z m62 -23 c-3 -5 -17 -10 -31 -10 -13 0
-24 5 -24 10 0 6 14 10 31 10 17 0 28 -4 24 -10z m-115 -10 c0 -5 -12 -13 -27
-16 -16 -4 -34 -14 -41 -23 -11 -13 -13 -14 -10 -1 3 8 20 23 39 32 40 21 39
21 39 8z m225 -20 c11 -4 36 -15 57 -24 20 -9 40 -16 45 -16 4 0 21 -13 36
-30 16 -16 33 -30 37 -30 5 0 14 -9 20 -20 9 -17 7 -22 -12 -29 -13 -5 -24 -5
-26 0 -2 5 -10 9 -18 9 -8 0 -13 3 -13 8 3 20 -2 32 -16 32 -8 0 -15 7 -15 15
0 10 -10 15 -28 15 -16 0 -34 8 -42 20 -8 11 -23 20 -33 20 -10 0 -15 5 -12
10 3 6 2 10 -4 10 -5 0 -13 -4 -16 -10 -8 -13 -31 8 -32 31 -1 16 2 17 25 7
15 -6 36 -14 47 -18z m-360 -1 c-5 -24 -13 -35 -20 -28 -7 7 6 49 16 49 4 0 6
-10 4 -21z m45 1 c0 -5 -7 -10 -15 -10 -8 0 -15 5 -15 10 0 6 7 10 15 10 8 0
15 -4 15 -10z m203 3 c-13 -2 -33 -2 -45 0 -13 2 -3 4 22 4 25 0 35 -2 23 -4z
m-290 -48 c-2 -8 -19 -17 -36 -21 -17 -3 -46 -23 -65 -45 -20 -22 -42 -39 -50
-39 -9 0 -13 -7 -10 -18 4 -12 -3 -24 -16 -32 -19 -12 -20 -12 -7 4 12 14 12
16 -3 10 -10 -4 -16 -1 -16 9 0 20 126 151 138 143 6 -3 13 -2 16 2 9 15 55 2
49 -13z m647 -125 c8 -5 11 -12 8 -16 -11 -10 20 -36 33 -28 8 4 9 3 5 -4 -12
-20 -55 -13 -83 12 -37 34 -7 64 37 36z m-460 -39 c27 -3 -10 -18 -62 -24 -44
-6 -66 2 -55 21 5 6 71 8 117 3z m150 -3 c0 -4 7 -5 15 -2 8 4 15 2 15 -4 0
-14 -25 -22 -66 -22 -31 0 -45 16 -29 32 8 8 65 4 65 -4z m-547 -5 c-7 -2 -19
-2 -25 0 -7 3 -2 5 12 5 14 0 19 -2 13 -5z m270 -7 c4 -9 -3 -16 -18 -19 -15
-2 -22 0 -18 6 3 6 1 7 -5 3 -6 -3 -13 -2 -16 3 -4 5 6 12 21 14 16 2 29 5 29
6 1 0 4 -5 7 -13z m-287 -48 c-6 -10 -14 -18 -18 -18 -5 0 -8 -7 -8 -15 0 -8
-4 -15 -10 -15 -13 0 -13 17 1 26 6 3 8 17 5 29 -7 26 11 38 30 21 8 -8 8 -15
0 -28z m666 29 c7 -7 20 -16 29 -19 23 -9 31 -45 10 -45 -20 0 -52 27 -45 38
3 5 -1 6 -9 3 -9 -3 -16 3 -20 15 -6 24 14 28 35 8z m-432 -7 c0 -13 -11 -13
-30 0 -12 8 -11 10 8 10 12 0 22 -4 22 -10z m680 -20 c0 -5 -4 -10 -10 -10 -5
0 -10 5 -10 10 0 6 5 10 10 10 6 0 10 -4 10 -10z m-720 -14 c0 -3 -4 -8 -10
-11 -5 -3 -10 -1 -10 4 0 6 5 11 10 11 6 0 10 -2 10 -4z m-44 -22 c-3 -8 -2
-12 4 -9 12 8 13 -5 1 -24 -6 -9 -11 -10 -15 -2 -10 15 -26 14 -26 -2 0 -7
-20 -30 -45 -50 -25 -21 -45 -41 -45 -45 0 -4 16 -7 35 -8 20 0 40 -5 46 -11
7 -7 -6 -9 -43 -5 -29 2 -50 1 -46 -3 5 -5 -1 -15 -13 -23 -11 -8 -18 -19 -16
-26 7 -17 -14 -42 -41 -50 -27 -9 -18 -30 10 -23 14 4 17 2 9 -7 -6 -7 -8 -21
-5 -33 4 -16 0 -23 -16 -28 -13 -4 -19 -10 -14 -14 16 -11 15 -72 -2 -88 -13
-14 -17 -14 -25 -2 -5 8 -7 24 -4 36 4 18 2 21 -12 17 -11 -4 -14 -2 -8 3 32
26 58 93 36 93 -5 0 -6 15 -1 34 5 25 4 33 -5 32 -18 -3 -85 -74 -85 -90 0 -8
-11 -21 -25 -30 -29 -19 -39 -20 -29 -4 5 7 3 8 -5 4 -9 -6 -8 -12 4 -26 11
-13 13 -19 4 -22 -6 -2 -17 -19 -23 -38 -6 -18 -17 -36 -25 -38 -10 -3 -12 0
-8 12 4 10 3 15 -3 11 -17 -10 -11 21 8 46 10 13 18 31 17 39 0 8 7 22 15 31
74 79 99 107 109 127 7 13 15 21 18 19 9 -10 43 33 43 54 0 11 -4 18 -9 14 -6
-3 -6 6 -1 25 5 16 6 30 4 30 -3 0 -2 5 2 11 4 8 9 7 15 -2 12 -19 11 -32 -1
-24 -14 8 -12 -7 3 -26 25 -32 46 -30 70 6 12 19 36 41 52 50 17 8 24 15 16
15 -14 0 57 58 73 59 4 1 5 -6 2 -15z m784 -5 c0 -5 -4 -9 -10 -9 -5 0 -10 7
-10 16 0 8 5 12 10 9 6 -3 10 -10 10 -16z m-970 -33 c0 -8 -6 -18 -12 -22 -7
-4 -10 -4 -6 1 4 4 3 14 -3 22 -9 10 -8 13 5 13 9 0 16 -6 16 -14z m975 -5
c-3 -11 -1 -22 5 -26 5 -3 10 2 10 12 1 17 1 17 11 0 10 -17 6 -73 -5 -84 -3
-3 -9 2 -13 12 -4 11 -2 20 5 23 7 2 12 10 12 18 0 9 -4 13 -9 10 -13 -8 -34
21 -27 39 8 22 18 18 11 -4z m-90 -46 c32 -30 62 -55 66 -55 5 0 9 -7 9 -15 0
-18 9 -19 46 -4 28 10 28 10 9 -10 -16 -19 -16 -21 -2 -21 10 0 17 -4 17 -10
0 -5 -7 -10 -15 -10 -8 0 -15 -4 -15 -10 0 -5 13 -10 28 -10 27 0 52 -15 52
-33 0 -4 -10 -1 -21 7 -27 19 -49 10 -49 -19 0 -31 -24 -87 -34 -78 -4 4 -1
-5 7 -20 17 -33 13 -98 -8 -131 -13 -19 -14 -29 -5 -45 8 -17 8 -20 -4 -15
-11 4 -15 19 -13 52 1 36 -2 47 -13 47 -8 0 -17 -11 -21 -25 -4 -14 -7 -21 -8
-17 -1 4 -10 3 -20 -2 -14 -8 -22 -7 -32 5 -11 13 -8 19 17 39 17 13 32 19 35
13 3 -5 9 -1 13 9 7 17 8 17 22 -1 21 -29 26 -14 13 38 -6 25 -9 60 -5 76 4
22 2 30 -9 30 -8 0 -15 7 -15 16 0 8 4 13 9 10 5 -4 14 6 19 21 6 16 11 21 11
13 1 -13 2 -13 11 0 14 22 13 26 -17 39 -24 11 -25 11 -12 -5 13 -16 12 -16
-8 -5 -13 6 -23 15 -23 20 0 4 -8 17 -18 29 -14 15 -35 23 -77 27 -33 3 -63 9
-69 15 -6 6 -14 3 -23 -8 -12 -16 -14 -16 -26 0 -8 10 -16 16 -18 14 -2 -2
-23 -6 -46 -9 -33 -4 -43 -2 -43 9 0 8 3 14 8 15 4 0 18 3 32 6 45 10 151 8
158 -3 11 -16 37 -23 52 -14 9 6 4 16 -19 40 -35 37 -36 40 -18 40 7 0 40 -25
72 -55z m-682 -25 c16 -19 16 -20 -18 -20 -24 0 -35 5 -35 15 0 9 6 12 17 8
11 -4 14 -3 9 5 -12 20 8 13 27 -8z m108 7 c11 3 19 0 19 -6 0 -5 7 -8 15 -4
9 3 25 -3 37 -13 12 -11 18 -13 14 -6 -4 7 -1 12 9 12 8 0 18 -7 22 -16 6 -15
39 -15 96 2 14 5 18 1 15 -14 -2 -11 8 -31 22 -45 52 -51 70 -75 70 -93 0 -14
-12 -7 -45 29 -25 26 -45 52 -45 57 0 15 -52 16 -94 3 -50 -17 -55 -16 -28 3
28 19 28 34 1 34 -11 0 -40 9 -63 20 -33 15 -51 17 -74 11 -25 -8 -34 -5 -49
11 -18 20 -18 21 5 14 14 -5 22 -3 22 4 0 7 6 8 16 2 9 -5 25 -7 35 -5z m259
-27 c0 -5 -4 -10 -10 -10 -5 0 -10 5 -10 10 0 6 5 10 10 10 6 0 10 -4 10 -10z
m-186 -94 c-5 -14 -9 -15 -15 -4 -6 9 -9 4 -9 -14 0 -18 -5 -28 -15 -28 -8 0
-15 -4 -15 -9 0 -10 -30 -24 -37 -17 -2 2 17 25 42 51 47 47 61 53 49 21z
m757 -64 c-13 -2 -27 0 -32 5 -6 6 3 7 23 4 28 -4 29 -6 9 -9z m-1 -22 c0 -5
6 -10 14 -10 7 0 16 -9 19 -20 4 -16 2 -18 -12 -11 -9 5 -23 6 -32 1 -11 -6
-15 -4 -15 10 0 14 3 16 13 8 16 -13 17 4 1 20 -9 9 -9 12 0 12 7 0 12 -4 12
-10z m-868 -85 c-19 -54 -42 -72 -38 -30 1 14 11 32 22 40 10 8 15 15 10 15
-5 0 -3 7 4 15 20 24 21 13 2 -40z m415 43 c6 -7 13 -29 17 -48 l6 -35 -25 37
c-14 20 -25 42 -25 47 0 15 15 14 27 -1z m-677 -19 c0 -5 -4 -9 -10 -9 -5 0
-10 7 -10 16 0 8 5 12 10 9 6 -3 10 -10 10 -16z m1156 -16 c-7 -7 -26 7 -26
19 0 6 6 6 15 -2 9 -7 13 -15 11 -17z m-1123 -50 c-6 -15 -13 -16 -32 -4 -19
12 -23 43 -8 53 15 9 47 -30 40 -49z m904 32 c0 -8 -4 -12 -9 -9 -4 3 -8 9 -8
15 0 5 4 9 8 9 5 0 9 -7 9 -15z m260 9 c-3 -3 -1 -18 5 -33 6 -14 12 -35 13
-46 2 -11 8 -39 13 -62 8 -33 7 -43 -3 -43 -18 0 -37 26 -40 54 -6 47 -17 86
-25 86 -15 0 2 39 19 43 9 3 18 5 20 6 2 0 2 -2 -2 -5z m-461 -53 c-3 -5 1
-14 9 -21 18 -15 16 -80 -2 -73 -6 3 -9 11 -7 18 3 7 0 16 -5 20 -6 3 -9 11
-5 16 3 6 -2 17 -12 25 -11 9 -14 13 -7 10 6 -4 14 -2 18 4 3 5 8 10 11 10 3
0 3 -4 0 -9z m-775 -34 c-6 -6 -11 -15 -11 -21 0 -5 3 -7 6 -3 11 11 45 -29
38 -47 -3 -9 0 -26 8 -39 19 -29 29 -67 17 -67 -5 0 -9 -7 -9 -16 0 -13 3 -14
14 -5 12 10 17 8 26 -9 7 -13 17 -19 27 -16 11 4 13 2 10 -9 -4 -8 -2 -17 4
-21 16 -9 5 -27 -18 -30 -16 -3 -25 5 -38 32 -9 19 -23 38 -31 41 -8 3 -11 9
-8 14 3 5 -1 12 -10 15 -8 3 -12 12 -10 19 3 7 1 16 -5 19 -6 4 -8 13 -4 21 3
8 1 15 -4 15 -5 0 -10 12 -11 26 -1 15 -6 32 -12 38 -16 20 -8 52 13 54 15 1
17 -2 8 -11z m131 -19 c-2 -11 3 -18 12 -18 8 0 26 -14 39 -31 24 -31 25 -31
36 -11 8 15 8 22 -2 25 -9 4 -8 8 3 16 26 19 31 12 27 -39 -2 -27 0 -47 4 -44
5 2 19 -6 31 -18 l23 -23 -33 -3 c-24 -3 -31 -7 -24 -15 6 -7 13 -39 17 -71 4
-41 12 -65 26 -77 11 -9 17 -23 13 -32 -5 -14 -8 -14 -25 1 -10 9 -19 22 -19
29 0 7 -8 13 -17 13 -12 0 -14 3 -7 8 14 8 11 72 -4 81 -5 3 -12 17 -16 31
-13 44 -29 70 -44 70 -9 0 -13 3 -9 6 3 4 1 12 -6 19 -70 72 -86 109 -44 103
15 -2 21 -9 19 -20z m-344 -11 c6 -28 -28 -86 -45 -80 -14 6 -14 7 0 18 9 7
12 16 8 24 -10 15 10 62 24 58 6 -2 11 -11 13 -20z m1102 -17 c0 -5 -6 -10
-12 -11 -10 0 -10 -2 -1 -6 8 -3 -7 -24 -37 -54 -28 -28 -50 -56 -50 -63 0 -7
-7 -13 -15 -13 -8 0 -12 4 -9 8 16 26 -85 2 -118 -29 -17 -14 -18 -13 -18 11
0 25 34 56 47 43 3 -3 18 3 32 13 14 10 34 21 44 24 9 4 17 17 18 29 0 22 1
22 9 3 5 -11 9 -15 9 -9 1 7 11 14 22 17 14 4 20 11 16 21 -4 10 -1 13 9 9 7
-3 14 0 14 6 0 6 9 11 20 11 11 0 20 -4 20 -10z m100 -61 c0 -6 -4 -7 -10 -4
-5 3 -10 11 -10 16 0 6 5 7 10 4 6 -3 10 -11 10 -16z m-43 -21 c-3 -8 -6 -5
-6 6 -1 11 2 17 5 13 3 -3 4 -12 1 -19z m329 -26 c1 -63 -37 -85 -48 -27 -3
14 -1 25 4 25 5 0 4 8 -1 19 -12 22 -4 33 24 29 16 -2 20 -11 21 -46z m-1506
8 c0 -5 -4 -10 -10 -10 -5 0 -10 5 -10 10 0 6 5 10 10 10 6 0 10 -4 10 -10z
m1179 -27 c-6 -16 -11 -46 -11 -68 1 -23 -2 -34 -7 -27 -6 10 -18 3 -47 -25
-21 -21 -37 -41 -36 -45 1 -5 -4 -8 -11 -8 -16 0 -49 -24 -100 -72 -40 -38
-65 -46 -83 -28 -6 6 -21 6 -42 -2 -24 -9 -35 -9 -43 -1 -14 14 -4 47 11 38 5
-3 10 -3 10 2 0 4 16 8 35 9 19 0 35 -3 35 -8 0 -4 7 -8 16 -8 8 0 12 5 9 10
-7 11 17 40 33 40 5 0 15 21 22 48 24 94 21 87 32 68 5 -9 8 -24 7 -34 -3 -32
1 -37 31 -38 23 -1 30 3 30 17 0 11 5 19 11 19 5 0 7 -4 4 -10 -3 -5 -1 -10 4
-10 10 0 15 20 12 47 -1 7 12 22 28 34 17 12 33 35 36 51 4 15 11 28 16 28 4
0 4 -12 -2 -27z m-624 7 c-3 -5 -2 -10 2 -10 5 0 9 -10 10 -21 2 -26 -12 -14
-22 19 -4 14 -2 22 5 22 6 0 8 -4 5 -10z m125 -30 c11 0 20 -5 20 -11 0 -6 -9
-8 -22 -3 -26 7 -58 33 -58 46 0 4 9 -1 20 -12 11 -11 29 -20 40 -20z m145 0
c-4 -6 -13 -9 -21 -6 -8 3 -14 1 -14 -4 0 -6 8 -10 18 -10 16 -1 16 -1 -1 -11
-24 -14 -40 -7 -44 20 -2 16 1 22 9 18 7 -2 22 -1 33 3 24 9 30 6 20 -10z
m-215 0 c0 -5 -4 -10 -9 -10 -6 0 -13 5 -16 10 -3 6 1 10 9 10 9 0 16 -4 16
-10z m133 -23 c-2 -4 1 -14 7 -22 7 -8 9 -15 4 -15 -5 0 -16 11 -25 23 -16 21
-16 23 1 23 10 0 16 -4 13 -9z m-745 -35 c2 -15 7 -28 13 -30 5 -2 9 -10 9
-19 0 -8 9 -28 20 -43 13 -18 16 -31 10 -35 -5 -3 -10 0 -10 8 0 7 -16 32 -35
54 -35 41 -40 57 -29 88 8 21 17 11 22 -23z m1482 3 c9 -11 9 -22 2 -44 -6
-16 -8 -32 -5 -35 3 -3 -5 -4 -17 -3 -19 1 -21 5 -14 37 3 19 7 41 7 48 0 16
12 15 27 -3z m-1054 -101 c-6 -7 -12 -8 -14 -4 -2 5 -10 6 -18 3 -10 -3 -12 0
-8 10 3 8 0 18 -6 22 -8 5 -8 10 0 20 10 12 16 9 34 -12 17 -20 20 -30 12 -39z
m1008 -21 c-7 -30 -24 -55 -24 -36 0 17 18 63 25 63 3 0 2 -12 -1 -27z m-997
-5 c-3 -8 -6 -5 -6 6 -1 11 2 17 5 13 3 -3 4 -12 1 -19z m70 -10 c13 -12 23
-16 23 -10 0 18 18 14 37 -8 10 -11 30 -20 45 -20 31 0 36 -11 13 -30 -14 -12
-14 -15 1 -31 14 -16 15 -19 2 -19 -8 0 -21 11 -28 25 -7 14 -22 25 -32 25
-10 0 -18 6 -18 14 0 8 -6 14 -12 13 -38 -1 -50 4 -44 18 3 8 0 14 -6 12 -7
-1 -14 6 -16 16 -5 23 7 22 35 -5z m-401 -50 c27 -29 29 -61 3 -47 -22 11 -41
44 -32 53 3 3 -5 6 -18 7 -13 0 -18 3 -11 6 6 2 9 9 6 15 -11 17 29 -8 52 -34z
m658 -3 c4 -10 -1 -15 -14 -15 -11 0 -20 -4 -20 -10 0 -18 -17 -10 -34 15
l-16 25 39 0 c25 0 41 -5 45 -15z m-84 -16 c0 -5 -4 -9 -8 -9 -5 0 -9 7 -9 15
0 8 4 12 9 9 4 -3 8 -9 8 -15z m722 -16 c-6 -10 -22 -25 -36 -33 -14 -7 -26
-19 -26 -26 0 -13 -30 -28 -39 -18 -3 3 3 13 15 23 11 9 19 22 16 29 -3 11 10
16 31 13 4 0 7 5 7 13 0 8 8 16 18 18 23 6 25 3 14 -19z m-509 1 c3 -4 1 -16
-4 -27 -9 -16 -13 -17 -20 -6 -6 10 -9 11 -9 1 0 -7 -16 -28 -35 -46 l-35 -34
40 -16 c22 -9 51 -16 64 -16 14 0 30 -10 40 -24 l16 -25 -38 6 c-20 2 -53 10
-72 16 -19 5 -45 11 -57 11 -12 1 -26 6 -30 10 -4 5 -2 6 4 2 8 -4 11 -2 8 7
-4 9 -16 12 -36 9 -18 -3 -28 -9 -26 -17 3 -6 1 -18 -4 -26 -7 -11 -9 -11 -9
4 0 19 -16 23 -22 5 -3 -8 -7 -6 -11 5 -3 9 0 23 8 31 17 17 20 46 5 46 -5 0
-10 -7 -10 -17 0 -22 -6 -14 -14 21 -6 26 -5 28 8 17 13 -11 16 -11 16 0 0 11
2 11 10 -1 5 -8 10 -12 10 -8 0 4 16 0 34 -7 23 -10 37 -11 41 -5 4 6 10 8 15
5 5 -3 25 15 45 40 35 43 54 53 68 39z m-711 -28 c10 -7 15 -16 11 -20 -4 -4
3 -9 15 -13 16 -4 22 -12 20 -26 -2 -11 3 -22 11 -25 8 -3 11 0 7 7 -5 7 3 11
23 11 17 0 31 -4 31 -10 0 -12 29 -28 63 -34 15 -2 32 -8 39 -12 6 -4 31 -7
55 -5 26 1 43 -2 43 -9 0 -6 5 -8 10 -5 17 11 11 -7 -7 -21 -21 -16 -59 -18
-68 -4 -4 6 -11 7 -17 4 -5 -4 -20 -2 -31 4 -12 6 -42 18 -67 26 -69 22 -101
38 -134 69 -17 15 -34 27 -38 27 -10 0 -11 34 -1 43 9 10 15 8 35 -7z m1073
-75 c-6 -5 -21 -12 -35 -16 -22 -7 -23 -6 -11 9 7 9 23 16 34 16 13 0 17 -4
12 -9z m-625 -41 c-6 -11 -23 -23 -38 -26 -15 -4 -43 -18 -62 -32 -33 -24 -34
-24 -15 -3 11 13 39 32 61 41 23 10 45 23 48 29 12 19 17 12 6 -9z m557 4 c0
-10 -7 -14 -18 -11 -10 3 -20 0 -22 -6 -5 -15 -40 -18 -49 -4 -5 8 2 16 20 24
39 17 69 16 69 -3z m-125 -18 c21 -31 -86 -53 -111 -22 -15 18 11 40 39 31 11
-3 20 -2 20 3 0 13 43 3 52 -12z"/>
<path d="M625 1430 c3 -5 10 -10 16 -10 5 0 9 5 9 10 0 6 -7 10 -16 10 -8 0
-12 -4 -9 -10z"/>
<path d="M1620 1291 c0 -6 4 -13 10 -16 6 -3 7 1 4 9 -7 18 -14 21 -14 7z"/>
<path d="M1280 920 c0 -5 5 -10 11 -10 5 0 7 5 4 10 -3 6 -8 10 -11 10 -2 0
-4 -4 -4 -10z"/>
<path d="M1096 526 c10 -8 21 -12 24 -10 5 6 -21 24 -34 24 -6 0 -1 -6 10 -14z"/>
</g>
</svg>
